# xmcd
#
# Track frame offsets:
# 150
# 21388
# 37308
# 55330
#
# Disc length: 949 seconds
#
#
# Revision: 0
# Processed by: cddbd v1.5.1PL2 Copyright (c) Steve Scherf et al.
# Submitted via: FreeRIP 2.944 
#
DISCID=3603b304
DTITLE=Carrie Underwood - Some Hearts
DYEAR=2005
DGENRE=Country
TTITLE0=Better Life
TTITLE1=Mocking Bird
TTITLE2=Don't Forget To Remember Me
TTITLE3=Living In Fast Forward
EXTD=
EXTT0=
EXTT1=
EXTT2=
EXTT3=
PLAYORDER=
